# xmcd
#
# Track frame offsets: 
#        150
#        28494
#        50134
#        72318
#        95374
#        119134
#        138278
#        160894
#        184614
#        208278
#        231246
#        252326
#
# Disc length: 3664 seconds
#
# Revision: 0
# Processed by: cddbd v1.5.2PL0 Copyright (c) Steve Scherf et al.
# Submitted via: ExactAudioCopy v1.3
#
DISCID=bb0e4e0c
DTITLE=狦稲 - 狦稲
DYEAR=1900
DGENRE=A Cappella
TTITLE0=ρそρそи稲
TTITLE1=碘
TTITLE2=稲ぱ瓣
TTITLE3=ぱぃㄓ
TTITLE4=綤睲
TTITLE5=留籋
TTITLE6=―︱
TTITLE7=盜规‵瑆
TTITLE8=ńぇ
TTITLE9=Τ瑀
TTITLE10=堡
TTITLE11=狦稲
EXTD=
EXTT0=
EXTT1=
EXTT2=
EXTT3=
EXTT4=
EXTT5=
EXTT6=
EXTT7=
EXTT8=
EXTT9=
EXTT10=
EXTT11=
PLAYORDER=
